<svg width="40" height="40" viewBox="0 0 40 40" fill="none" xmlns="http://www.w3.org/2000/svg">
<path fill-rule="evenodd" clip-rule="evenodd" d="M20 40C31.0457 40 40 31.0457 40 20C40 8.9543 31.0457 0 20 0C8.9543 0 0 8.9543 0 20C0 31.0457 8.9543 40 20 40ZM15.7951 10H25.2045C28.4002 10 31 12.5998 30.9999 15.7952V25.2047C30.9999 28.4001 28.4002 30.9999 25.2045 30.9999H15.7951C12.5997 30.9999 10 28.4002 10 25.2047V15.7952C10 12.5998 12.5997 10 15.7951 10ZM25.2047 29.1367C27.3728 29.1367 29.1368 27.3728 29.1368 25.2047H29.1367V15.7952C29.1367 13.6272 27.3727 11.8632 25.2045 11.8632H15.7951C13.6271 11.8632 11.8632 13.6272 11.8632 15.7952V25.2047C11.8632 27.3728 13.6271 29.1368 15.7951 29.1367H25.2047ZM15.0898 20.5002C15.0898 17.5165 17.5172 15.0891 20.501 15.0891C23.4847 15.0891 25.9121 17.5165 25.9121 20.5002C25.9121 23.4839 23.4847 25.9111 20.501 25.9111C17.5172 25.9111 15.0898 23.4839 15.0898 20.5002ZM16.9531 20.5001C16.9531 22.4564 18.5447 24.0478 20.501 24.0478C22.4572 24.0478 24.0489 22.4564 24.0489 20.5001C24.0489 18.5438 22.4574 16.9522 20.501 16.9522C18.5446 16.9522 16.9531 18.5438 16.9531 20.5001ZM26.1398 13.5092C25.7808 13.5092 25.4282 13.6545 25.1747 13.9091C24.9199 14.1625 24.7734 14.5153 24.7734 14.8755C24.7734 15.2346 24.92 15.5873 25.1747 15.8419C25.428 16.0953 25.7808 16.2419 26.1398 16.2419C26.5 16.2419 26.8515 16.0953 27.1062 15.8419C27.3608 15.5873 27.5061 15.2345 27.5061 14.8755C27.5061 14.5153 27.3608 14.1625 27.1062 13.9091C26.8528 13.6545 26.5 13.5092 26.1398 13.5092Z" fill="#FCFCFC"/>
</svg>
