<svg width="150" height="45" viewBox="0 0 150 45" fill="none" xmlns="http://www.w3.org/2000/svg">
<path d="M12.0018 22.5897L21.6805 11.8353L27.2404 17.9549V39.522L12.0018 22.5897ZM25.3789 41.5906H2.63288V33L10.1401 24.6583L25.3789 41.5906ZM2.63288 28.8631V17.9549L14.9366 4.41391L19.8102 9.77733L2.63288 28.8631ZM15.0297 0.397975L14.9366 0.295768L0.0391195 16.6917L0 16.7347V44.5161H29.8735V16.7347L15.0297 0.397975ZM130.826 38.1854C130.826 37.52 130.368 37.1873 129.447 37.1873H127.857V39.3533H129.511C130.388 39.3533 130.826 38.9657 130.826 38.1854ZM130.688 35.7465C130.688 35.4298 130.585 35.2049 130.382 35.0696C130.178 34.934 129.872 34.8675 129.465 34.8675H127.857V36.7239H129.412C129.866 36.7239 130.192 36.6459 130.391 36.4899C130.589 36.3339 130.688 36.086 130.688 35.7465ZM131.159 35.7063C131.159 36.0493 131.082 36.3177 130.93 36.5127C130.777 36.7065 130.529 36.8421 130.184 36.9189V36.9532C130.576 37.0037 130.859 37.1287 131.035 37.3296C131.21 37.5315 131.297 37.8207 131.297 38.1969C131.297 38.7178 131.142 39.1205 130.832 39.4015C130.523 39.6825 130.07 39.8237 129.474 39.8237H127.413V34.3985H129.484C130.04 34.3985 130.459 34.5097 130.739 34.7322C131.018 34.9558 131.159 35.2806 131.159 35.7063ZM121.794 37.1036C121.794 37.8482 121.941 38.4297 122.236 38.8475C122.531 39.265 122.948 39.4739 123.487 39.4739C124.026 39.4739 124.443 39.265 124.737 38.8475C125.032 38.4297 125.181 37.8482 125.181 37.1036C125.181 36.3543 125.032 35.774 124.733 35.3609C124.435 34.949 124.016 34.7425 123.477 34.7425C122.938 34.7425 122.523 34.9479 122.232 35.3586C121.939 35.7693 121.794 36.3522 121.794 37.1036ZM125.647 37.1036C125.647 37.9882 125.453 38.6788 125.067 39.1767C124.681 39.6745 124.148 39.9224 123.469 39.9224C123.041 39.9224 122.663 39.8078 122.337 39.5782C122.011 39.3489 121.761 39.0195 121.587 38.5904C121.414 38.1614 121.327 37.6656 121.327 37.1036C121.327 36.219 121.519 35.5284 121.906 35.035C122.292 34.5409 122.822 34.2942 123.495 34.2942C124.167 34.2942 124.693 34.544 125.075 35.0442C125.455 35.5456 125.647 36.2317 125.647 37.1036ZM117.8 39.4842C118.3 39.4842 118.688 39.2777 118.961 38.8646C119.235 38.4516 119.372 37.8757 119.372 37.1334C119.372 35.54 118.855 34.7425 117.819 34.7425C117.249 34.7425 116.832 34.9168 116.565 35.2646C116.299 35.6121 116.165 36.1776 116.165 36.9636V37.1231C116.165 37.972 116.293 38.5777 116.549 38.9403C116.805 39.3028 117.222 39.4842 117.8 39.4842ZM117.808 39.9224C117.059 39.9224 116.509 39.6104 116.165 38.984H116.134L116.148 39.4039C116.161 39.6494 116.165 39.9201 116.165 40.2126V42.2788H115.721V34.3985H116.099L116.183 35.1727H116.21C116.547 34.5865 117.081 34.2942 117.819 34.2942C118.478 34.2942 118.979 34.5339 119.326 35.0143C119.671 35.4962 119.845 36.195 119.845 37.1139C119.845 38.0042 119.663 38.6959 119.297 39.187C118.934 39.6769 118.438 39.9224 117.808 39.9224ZM112.099 34.7322C111.63 34.7322 111.252 34.9044 110.967 35.2484C110.682 35.5938 110.517 36.0905 110.469 36.7387H113.486C113.486 36.11 113.364 35.618 113.119 35.2646C112.873 34.91 112.534 34.7322 112.099 34.7322ZM112.229 39.9224C111.52 39.9224 110.967 39.6804 110.57 39.195C110.174 38.7086 109.976 38.0282 109.976 37.1529C109.976 36.2878 110.166 35.5949 110.55 35.074C110.934 34.5531 111.45 34.2942 112.099 34.2942C112.675 34.2942 113.127 34.5165 113.459 34.9617C113.792 35.4079 113.959 36.0136 113.959 36.7789V37.1781H110.443C110.449 37.9238 110.604 38.4929 110.911 38.8853C111.219 39.2777 111.657 39.4739 112.229 39.4739C112.507 39.4739 112.753 39.452 112.964 39.4083C113.175 39.366 113.443 39.273 113.765 39.1297V39.5782C113.49 39.7114 113.237 39.8031 113.003 39.8512C112.768 39.8994 112.512 39.9224 112.229 39.9224ZM105.057 37.1529V39.3533H106.709C107.134 39.3533 107.461 39.2547 107.686 39.0552C107.913 38.8555 108.026 38.5618 108.026 38.1762C108.026 37.8172 107.925 37.5568 107.725 37.395C107.525 37.2333 107.178 37.1529 106.682 37.1529H105.057ZM105.057 36.6849H106.777C107.923 36.6849 108.497 37.1851 108.497 38.1854C108.497 38.7018 108.336 39.1033 108.016 39.3912C107.696 39.6792 107.238 39.8237 106.639 39.8237H104.613V34.3985H105.057V36.6849ZM100.803 39.4842C101.303 39.4842 101.689 39.2777 101.964 38.8646C102.238 38.4516 102.375 37.8757 102.375 37.1334C102.375 35.54 101.856 34.7425 100.82 34.7425C100.252 34.7425 99.8346 34.9168 99.5661 35.2646C99.2997 35.6121 99.1675 36.1776 99.1675 36.9636V37.1231C99.1675 37.972 99.2956 38.5777 99.5517 38.9403C99.8078 39.3028 100.225 39.4842 100.803 39.4842ZM100.811 39.9224C100.06 39.9224 99.5124 39.6104 99.1675 38.984H99.1366L99.1491 39.4039C99.1614 39.6494 99.1675 39.9201 99.1675 40.2126V42.2788H98.7236V34.3985H99.0994L99.1861 35.1727H99.213C99.5475 34.5865 100.084 34.2942 100.82 34.2942C101.478 34.2942 101.982 34.5339 102.327 35.0143C102.674 35.4962 102.845 36.195 102.845 37.1139C102.845 38.0042 102.664 38.6959 102.3 39.187C101.937 39.6769 101.439 39.9224 100.811 39.9224ZM95.1016 34.7322C94.6327 34.7322 94.2549 34.9044 93.9698 35.2484C93.685 35.5938 93.5198 36.0905 93.4723 36.7387H96.4891C96.4891 36.11 96.3673 35.618 96.1216 35.2646C95.8759 34.91 95.5374 34.7322 95.1016 34.7322ZM95.2316 39.9224C94.5234 39.9224 93.9698 39.6804 93.5733 39.195C93.1768 38.7086 92.9787 38.0282 92.9787 37.1529C92.9787 36.2878 93.1686 35.5949 93.5528 35.074C93.9368 34.5531 94.4532 34.2942 95.1016 34.2942C95.6778 34.2942 96.1299 34.5165 96.4625 34.9617C96.7949 35.4079 96.9622 36.0136 96.9622 36.7789V37.1781H93.4454C93.4515 37.9238 93.6065 38.4929 93.9142 38.8853C94.2219 39.2777 94.6596 39.4739 95.2316 39.4739C95.5105 39.4739 95.7562 39.452 95.9668 39.4083C96.1775 39.366 96.4458 39.273 96.7681 39.1297V39.5782C96.4934 39.7114 96.2394 39.8031 96.006 39.8512C95.7706 39.8994 95.5145 39.9224 95.2316 39.9224ZM91.8451 34.8273H90.2177V39.8237H89.7778V34.8273H88.1113V34.3985H91.8451V34.8273ZM83.1577 34.3985V36.7789H86.257V34.3985H86.6969V39.8237H86.257V37.2079H83.1577V39.8237H82.7136V34.3985H83.1577ZM77.2021 34.3985V38.3209L77.1753 39.3442L80.0725 34.3985H80.665V39.8237H80.2376V35.9253L80.2563 34.8767L77.359 39.8237H76.7807V34.3985H77.2021ZM68.3881 34.3985V36.7789H71.4877V34.3985H71.9275V39.8237H71.4877V37.2079H68.3881V39.8237H67.944V34.3985H68.3881ZM63.9544 33.63C63.5085 33.63 63.1686 33.5198 62.9354 33.2984C62.7019 33.0769 62.5658 32.7202 62.5264 32.228H62.9219C62.9663 32.594 63.0686 32.8532 63.2276 33.0036C63.3856 33.1549 63.6313 33.2305 63.9637 33.2305C64.2932 33.2305 64.5378 33.1525 64.6979 32.9956C64.858 32.8393 64.9559 32.5837 64.9921 32.228H65.3875C65.3247 33.1629 64.8466 33.63 63.9544 33.63ZM62.4326 34.3985V38.3209L62.4046 39.3442L65.3018 34.3985H65.8946V39.8237H65.468V35.9253L65.4867 34.8767L62.5895 39.8237H62.0103V34.3985H62.4326ZM57.8906 39.4739C58.411 39.4739 58.8219 39.3087 59.1232 38.9772C59.4237 38.6466 59.5745 38.1854 59.5745 37.598V37.0634L58.7208 37.1036C58.035 37.1391 57.5468 37.2584 57.2545 37.4603C56.9623 37.6623 56.8168 37.9744 56.8168 38.4011C56.8168 38.7408 56.9107 39.0047 57.0976 39.1917C57.2846 39.3797 57.5489 39.4739 57.8906 39.4739ZM59.687 39.8237L59.5745 38.9657H59.5383C59.2926 39.3143 59.0407 39.561 58.7815 39.7067C58.5224 39.8512 58.2169 39.9224 57.8638 39.9224C57.3846 39.9224 57.012 39.7871 56.7445 39.5141C56.4781 39.241 56.3448 38.8635 56.3448 38.3804C56.3448 37.8515 56.5432 37.4408 56.9407 37.1483C57.3372 36.8546 57.9111 36.7009 58.6629 36.6849L59.592 36.6539V36.2949C59.592 35.7784 59.4981 35.3908 59.3091 35.1269C59.1213 34.8642 58.8166 34.7322 58.3975 34.7322C57.9454 34.7322 57.4776 34.8722 56.9923 35.152L56.8261 34.723C57.362 34.4432 57.8917 34.3034 58.4161 34.3034C58.9519 34.3034 59.3524 34.4582 59.6168 34.7676C59.8821 35.0764 60.0143 35.5594 60.0143 36.2145V39.8237H59.687ZM53.0698 36.7387C53.9537 36.7387 54.3954 36.4015 54.3954 35.7258C54.3954 35.4034 54.2933 35.1567 54.0898 34.9869C53.8864 34.817 53.5952 34.7322 53.2184 34.7322C52.9788 34.7322 52.756 34.7643 52.5494 34.8252C52.3428 34.8858 52.1209 34.9753 51.8843 35.0924L51.7181 34.6828C52.2396 34.4239 52.7456 34.2942 53.236 34.2942C53.7697 34.2942 54.1736 34.4168 54.4491 34.6633C54.7249 34.9088 54.8623 35.2507 54.8623 35.6868C54.8623 36.3153 54.572 36.7159 53.9907 36.8891V36.9189C54.3531 37.0188 54.6164 37.184 54.7817 37.4145C54.9458 37.6461 55.0285 37.9422 55.0285 38.3014C55.0285 38.8026 54.8631 39.1997 54.5318 39.4887C54.2015 39.7779 53.742 39.9224 53.1554 39.9224C52.8384 39.9224 52.5483 39.8879 52.2861 39.8214C52.0249 39.7525 51.808 39.6621 51.6375 39.5484V39.0552C51.9454 39.218 52.2127 39.3282 52.4369 39.3867C52.6619 39.4452 52.9014 39.4739 53.1554 39.4739C53.5984 39.4739 53.9444 39.3693 54.1911 39.1619C54.4379 38.9541 54.5618 38.6569 54.5618 38.2704C54.5618 37.8952 54.443 37.6175 54.2066 37.4375C53.9702 37.2584 53.6149 37.1689 53.1421 37.1689H52.4637V36.7387H53.0698ZM46.6382 34.3985V38.3209L46.6114 39.3442L49.5075 34.3985H50.1002V39.8237H49.6737V35.9253L49.6923 34.8767L46.7953 39.8237H46.2159V34.3985H46.6382ZM43.6687 39.3533V34.8572H42.1504C42.0787 36.6572 41.6863 38.1555 40.9739 39.3533H43.6687ZM44.7643 41.6639H44.3244V39.8237H40.5873V41.6639H40.1475V39.3533H40.4706C40.8779 38.7178 41.1923 37.9812 41.4137 37.1438C41.6353 36.305 41.7518 35.3908 41.7643 34.3985H44.1132V39.3533H44.7643V41.6639ZM150 23.807C150 25.0105 149.624 25.9261 148.873 26.5558C148.119 27.1857 146.993 27.5001 145.496 27.5001C144.728 27.5001 144.073 27.4428 143.53 27.3279C142.989 27.212 142.483 27.0424 142.01 26.8185V24.1742C142.545 24.4541 143.148 24.6881 143.819 24.8775C144.49 25.0657 145.079 25.1597 145.589 25.1597C146.636 25.1597 147.159 24.8246 147.159 24.1524C147.159 23.901 147.088 23.6956 146.95 23.5396C146.812 23.3815 146.572 23.2036 146.231 23.0039C145.893 22.8047 145.438 22.5721 144.873 22.3063C144.061 21.9283 143.464 21.5784 143.082 21.2568C142.702 20.9349 142.426 20.566 142.252 20.1496C142.079 19.7337 141.992 19.2208 141.992 18.6123C141.992 17.57 142.355 16.7639 143.082 16.1938C143.809 15.6236 144.842 15.3386 146.176 15.3386C147.448 15.3386 148.685 15.6462 149.886 16.2615L149.019 18.5702C148.489 18.3186 147.995 18.1121 147.536 17.9513C147.076 17.7902 146.607 17.7098 146.128 17.7098C145.279 17.7098 144.854 17.9652 144.854 18.4758C144.854 18.7631 144.99 19.0108 145.265 19.2208C145.538 19.4309 146.138 19.7422 147.063 20.1548C147.888 20.5258 148.493 20.8724 148.877 21.1935C149.261 21.5159 149.544 21.8864 149.727 22.3063C149.909 22.7257 150 23.2252 150 23.807ZM139.627 15.3386C140.018 15.3386 140.342 15.3701 140.6 15.4326L140.383 18.4337C140.15 18.3639 139.867 18.3289 139.534 18.3289C138.614 18.3289 137.899 18.5916 137.385 19.1158C136.873 19.6407 136.614 20.3757 136.614 21.3197V27.2912H133.734V15.559H135.917L136.342 17.5315H136.482C136.811 16.874 137.253 16.3442 137.81 15.942C138.368 15.5395 138.973 15.3386 139.627 15.3386ZM123.937 21.4036C123.937 22.5652 124.109 23.4433 124.454 24.0377C124.797 24.6319 125.354 24.9301 126.129 24.9301C126.897 24.9301 127.45 24.6343 127.787 24.0422C128.123 23.4525 128.292 22.5721 128.292 21.4036C128.292 20.2424 128.121 19.3717 127.783 18.7906C127.442 18.21 126.884 17.9199 126.11 17.9199C125.342 17.9199 124.788 18.2084 124.447 18.7854C124.109 19.3625 123.937 20.2356 123.937 21.4036ZM131.239 21.4036C131.239 23.3136 130.785 24.8075 129.878 25.8848C128.972 26.962 127.71 27.5001 126.091 27.5001C125.077 27.5001 124.183 27.2546 123.409 26.7612C122.634 26.268 122.04 25.5589 121.625 24.6364C121.21 23.7118 121.001 22.635 121.001 21.4036C121.001 19.487 121.451 17.9967 122.351 16.9333C123.252 15.8703 124.518 15.3386 126.147 15.3386C127.161 15.3386 128.055 15.5837 128.829 16.0728C129.604 16.5627 130.199 17.266 130.616 18.1821C131.031 19.0987 131.239 20.1724 131.239 21.4036ZM118.504 27.2912H115.624V15.559H118.504V27.2912ZM115.502 12.5261C115.502 11.4838 116.024 10.9625 117.069 10.9625C118.114 10.9625 118.637 11.4838 118.637 12.5261C118.637 13.0228 118.507 13.4096 118.246 13.6854C117.984 13.962 117.592 14.1001 117.069 14.1001C116.024 14.1001 115.502 13.5752 115.502 12.5261ZM112.619 15.3386C113.009 15.3386 113.334 15.3701 113.592 15.4326L113.375 18.4337C113.141 18.3639 112.859 18.3289 112.524 18.3289C111.605 18.3289 110.888 18.5916 110.376 19.1158C109.862 19.6407 109.606 20.3757 109.606 21.3197V27.2912H106.726V15.559H108.906L109.332 17.5315H109.474C109.8 16.874 110.244 16.3442 110.8 15.942C111.357 15.5395 111.964 15.3386 112.619 15.3386ZM99.5538 17.6153C98.9446 17.6153 98.4654 17.8303 98.1187 18.2605C97.7738 18.6908 97.5754 19.3017 97.5238 20.0923H101.567C101.553 19.3017 101.369 18.6908 101.01 18.2605C100.65 17.8303 100.165 17.6153 99.5538 17.6153ZM99.9605 27.5001C98.261 27.5001 96.9332 26.9792 95.9751 25.9374C95.0189 24.8946 94.5399 23.4181 94.5399 21.5084C94.5399 19.5427 94.9819 18.023 95.8677 16.9492C96.7516 15.8755 97.974 15.3386 99.5352 15.3386C101.028 15.3386 102.189 15.8106 103.021 16.7547C103.851 17.6995 104.268 19.004 104.268 20.6694V22.222H97.4578C97.4887 23.1313 97.7323 23.8425 98.1846 24.3519C98.6388 24.8636 99.2749 25.1183 100.093 25.1183C100.729 25.1183 101.33 25.045 101.898 24.8982C102.463 24.7513 103.056 24.5173 103.671 24.1947V26.6716C103.17 26.9517 102.631 27.1594 102.057 27.2959C101.485 27.4324 100.787 27.5001 99.9605 27.5001ZM91.1202 24.9508C91.622 24.9508 92.227 24.8281 92.9333 24.5838V26.9653C92.2147 27.3222 91.3329 27.5001 90.2879 27.5001C89.1357 27.5001 88.2972 27.1766 87.7707 26.5295C87.2463 25.8824 86.9819 24.9118 86.9819 23.6176V17.9617H85.6045V16.6078L87.1904 15.5376L88.0206 13.0614H89.8626V15.559H92.8197V17.9617H89.8626V23.6176C89.8626 24.072 89.9781 24.4094 90.2073 24.6251C90.4365 24.8429 90.7423 24.9508 91.1202 24.9508ZM83.5893 27.2912H80.7086V20.4382C80.7086 19.5921 80.5743 18.957 80.3036 18.5336C80.0332 18.1102 79.6016 17.8987 79.0089 17.8987C78.2036 17.8987 77.6213 18.198 77.262 18.7958C76.9025 19.394 76.723 20.386 76.723 21.7713V27.2912H73.8427V15.559H76.0436L76.4318 17.0594H76.5908C76.9129 16.4927 77.3548 16.0641 77.9186 15.774C78.4823 15.4838 79.1226 15.3386 79.8411 15.3386C81.0678 15.3386 81.9991 15.7075 82.6352 16.4457C83.2712 17.1833 83.5893 18.2486 83.5893 19.6407V27.2912ZM70.7048 27.2912H67.8243V15.559H70.7048V27.2912ZM67.7025 12.5261C67.7025 11.4838 68.2248 10.9625 69.2699 10.9625C70.3147 10.9625 70.837 11.4838 70.837 12.5261C70.837 13.0228 70.707 13.4096 70.4458 13.6854C70.1844 13.962 69.7922 14.1001 69.2699 14.1001C68.2248 14.1001 67.7025 13.5752 67.7025 12.5261ZM60.3201 23.807C60.3201 25.0105 59.9441 25.9261 59.1915 26.5558C58.4389 27.1857 57.3133 27.5001 55.8151 27.5001C55.0471 27.5001 54.3924 27.4428 53.8503 27.3279C53.3093 27.212 52.8023 27.0424 52.3305 26.8185V24.1742C52.8653 24.4541 53.4684 24.6881 54.1385 24.8775C54.8094 25.0657 55.3992 25.1597 55.9092 25.1597C56.9551 25.1597 57.4776 24.8246 57.4776 24.1524C57.4776 23.901 57.4085 23.6956 57.27 23.5396C57.1306 23.3815 56.8921 23.2036 56.5514 23.0039C56.2116 22.8047 55.7585 22.5721 55.1915 22.3063C54.38 21.9283 53.7832 21.5784 53.4022 21.2568C53.0211 20.9349 52.7445 20.566 52.5711 20.1496C52.3975 19.7337 52.3119 19.2208 52.3119 18.6123C52.3119 17.57 52.6754 16.7639 53.4022 16.1938C54.1292 15.6236 55.1607 15.3386 56.4956 15.3386C57.7667 15.3386 59.0035 15.6462 60.2063 16.2615L59.3381 18.5702C58.8083 18.3186 58.315 18.1121 57.8555 17.9513C57.3949 17.7902 56.9261 17.7098 56.4482 17.7098C55.5984 17.7098 55.1729 17.9652 55.1729 18.4758C55.1729 18.7631 55.3104 19.0108 55.584 19.2208C55.8576 19.4309 56.4573 19.7422 57.3825 20.1548C58.2076 20.5258 58.8115 20.8724 59.1955 21.1935C59.5798 21.5159 59.8635 21.8864 60.0464 22.3063C60.2281 22.7257 60.3201 23.2252 60.3201 23.807ZM43.611 20.9107L44.867 19.1268L47.8226 15.559H51.0719L46.8789 20.648L51.3269 27.2912H48.0023L44.9616 22.537L43.7241 23.6383V27.2912H40.8438V10.9625H43.7241V18.245L43.5733 20.9107H43.611Z" fill="white"/>
</svg>
