<svg width="40" height="40" viewBox="0 0 40 40" fill="none" xmlns="http://www.w3.org/2000/svg">
<g clip-path="url(#clip0_122_438)">
<path d="M20 0C8.95313 0 0 8.95313 0 20C0 31.0469 8.95313 40 20 40C31.0469 40 40 31.0469 40 20C40 8.95313 31.0469 0 20 0ZM20 29.9453C19.0156 29.9453 18.0625 29.7969 17.1641 29.5312C17.5469 28.9297 17.9609 28.1563 18.1719 27.3906C18.2969 26.9453 18.875 24.6406 18.875 24.6406C19.2188 25.3047 20.2344 25.8828 21.3203 25.8828C24.5391 25.8828 26.7188 22.9531 26.7188 19.0313C26.7188 16.0625 24.2031 13.3047 20.3906 13.3047C15.6406 13.3047 13.2422 16.7109 13.2422 19.5547C13.2422 21.2734 13.8906 22.8047 15.2891 23.375C15.5156 23.4688 15.7188 23.375 15.7891 23.125C15.8359 22.9531 15.9453 22.5078 15.9922 22.3203C16.0625 22.0703 16.0312 21.9844 15.8516 21.7656C15.4531 21.2891 15.1953 20.6797 15.1953 19.8047C15.1953 17.2813 17.0859 15.0156 20.1172 15.0156C22.8047 15.0156 24.2812 16.6563 24.2812 18.8438C24.2812 21.7266 23.0078 24.1563 21.1094 24.1563C20.0625 24.1563 19.2812 23.2891 19.5312 22.2344C19.8281 20.9688 20.4141 19.6016 20.4141 18.6875C20.4141 17.8672 19.9766 17.1875 19.0625 17.1875C17.9922 17.1875 17.1328 18.2969 17.1328 19.7734C17.1328 20.7188 17.4531 21.3516 17.4531 21.3516C17.4531 21.3516 16.3594 25.9922 16.1641 26.7969C15.9844 27.5547 15.9609 28.3984 15.9922 29.0938C12.4609 27.5625 10 24.0391 10 19.9453C10 14.4219 14.4766 9.94531 20 9.94531C25.5234 9.94531 30 14.4219 30 19.9453C30 25.4687 25.5234 29.9453 20 29.9453Z" fill="#F2F2F2"/>
</g>
<defs>
<clipPath id="clip0_122_438">
<rect width="40" height="40" fill="white"/>
</clipPath>
</defs>
</svg>
