<svg width="51" height="50" viewBox="0 0 51 50" fill="none" xmlns="http://www.w3.org/2000/svg">
<g clip-path="url(#clip0_122_368)">
<path d="M25.0234 0.78125C11.6438 0.78125 0.804688 11.6219 0.804688 25C0.804688 38.3781 11.6453 49.2188 25.0234 49.2188C38.4031 49.2188 49.2422 38.3781 49.2422 25C49.2422 11.6219 38.4016 0.78125 25.0234 0.78125ZM36.9188 17.3734L32.9438 36.1047C32.65 37.4328 31.8594 37.7547 30.7563 37.1297L24.7016 32.6672L21.7813 35.4797C21.4594 35.8016 21.1859 36.075 20.5609 36.075L20.9906 29.9125L32.2109 19.775C32.7 19.3453 32.1031 19.1016 31.4578 19.5312L17.5906 28.2609L11.6141 26.3953C10.3156 25.9859 10.2859 25.0969 11.8875 24.4719L35.2375 15.4672C36.3219 15.0766 37.2687 15.7313 36.9172 17.3719L36.9188 17.3734Z" fill="#F2F2F2"/>
</g>
<defs>
<clipPath id="clip0_122_368">
<rect width="50" height="50" fill="white" transform="translate(0.0234375)"/>
</clipPath>
</defs>
</svg>
