<svg width="40" height="40" viewBox="0 0 40 40" fill="none" xmlns="http://www.w3.org/2000/svg">
<g clip-path="url(#clip0_122_440)">
<path d="M20.0008 0.800049C9.39678 0.800049 0.800781 9.39605 0.800781 20C0.800781 30.604 9.39678 39.2 20.0008 39.2C30.6048 39.2 39.2008 30.604 39.2008 20C39.2008 9.39605 30.6048 0.800049 20.0008 0.800049ZM27.3848 22.462C27.3848 22.462 29.0828 24.138 29.5008 24.916C29.5128 24.932 29.5188 24.948 29.5228 24.956C29.6928 25.242 29.7328 25.464 29.6488 25.63C29.5088 25.906 29.0288 26.042 28.8648 26.054H25.8648C25.6568 26.054 25.2208 26 24.6928 25.636C24.2868 25.352 23.8868 24.886 23.4968 24.432C22.9148 23.756 22.4108 23.172 21.9028 23.172C21.8383 23.1719 21.7741 23.1821 21.7128 23.202C21.3288 23.326 20.8368 23.874 20.8368 25.334C20.8368 25.79 20.4768 26.052 20.2228 26.052H18.8488C18.3808 26.052 15.9428 25.888 13.7828 23.61C11.1388 20.82 8.75878 15.224 8.73878 15.172C8.58878 14.81 8.89878 14.616 9.23678 14.616H12.2668C12.6708 14.616 12.8028 14.862 12.8948 15.08C13.0028 15.334 13.3988 16.344 14.0488 17.48C15.1028 19.332 15.7488 20.084 16.2668 20.084C16.3639 20.0829 16.4593 20.0582 16.5448 20.012C17.2208 19.636 17.0948 17.226 17.0648 16.726C17.0648 16.632 17.0628 15.648 16.7168 15.176C16.4688 14.834 16.0468 14.704 15.7908 14.656C15.8944 14.5131 16.0309 14.3971 16.1888 14.318C16.6528 14.086 17.4888 14.052 18.3188 14.052H18.7808C19.6808 14.064 19.9128 14.122 20.2388 14.204C20.8988 14.362 20.9128 14.788 20.8548 16.246C20.8368 16.66 20.8188 17.128 20.8188 17.68C20.8188 17.8 20.8128 17.928 20.8128 18.064C20.7928 18.806 20.7688 19.648 21.2928 19.994C21.3611 20.0369 21.4401 20.0598 21.5208 20.06C21.7028 20.06 22.2508 20.06 23.7348 17.514C24.1925 16.6946 24.5902 15.843 24.9248 14.966C24.9548 14.914 25.0428 14.754 25.1468 14.692C25.2235 14.6529 25.3086 14.633 25.3948 14.634H28.9568C29.3448 14.634 29.6108 14.692 29.6608 14.842C29.7488 15.08 29.6448 15.806 28.0188 18.008L27.2928 18.966C25.8188 20.898 25.8188 20.996 27.3848 22.462Z" fill="#F2F2F2"/>
</g>
<defs>
<clipPath id="clip0_122_440">
<rect width="40" height="40" fill="white"/>
</clipPath>
</defs>
</svg>
