<svg width="58" height="58" viewBox="0 0 58 58" fill="none" xmlns="http://www.w3.org/2000/svg">
<g clip-path="url(#clip0_122_457)">
<path d="M4.75954 52.2706L7.9718 40.4669C5.85517 36.8385 4.74313 32.7118 4.75003 28.5112C4.75003 15.3889 15.3871 4.75183 28.5094 4.75183C41.6317 4.75183 52.2688 15.3889 52.2688 28.5112C52.2688 41.6335 41.6317 52.2706 28.5094 52.2706C24.3106 52.2773 20.1857 51.1662 16.5584 49.0512L4.75954 52.2706ZM19.9346 17.3633C19.6278 17.3824 19.328 17.4632 19.0532 17.6009C18.7954 17.7468 18.5602 17.9293 18.3546 18.1426C18.0695 18.4111 17.908 18.6439 17.7345 18.8696C16.8564 20.0125 16.3841 21.4153 16.3921 22.8565C16.3969 24.0207 16.701 25.154 17.1762 26.2137C18.1479 28.3568 19.7469 30.6258 21.8592 32.7285C22.3676 33.2346 22.8642 33.743 23.3988 34.2158C26.0203 36.524 29.1444 38.1885 32.5224 39.077L33.8743 39.2837C34.3138 39.3075 34.7534 39.2742 35.1953 39.2528C35.8872 39.2171 36.5629 39.0297 37.1744 38.704C37.5688 38.4949 37.7542 38.3903 38.0844 38.1813C38.0844 38.1813 38.1866 38.1147 38.3814 37.9674C38.7022 37.7298 38.8994 37.5611 39.1655 37.2832C39.3627 37.0788 39.5337 36.8389 39.6644 36.5656C39.8497 36.1783 40.0351 35.4394 40.1111 34.8241C40.1681 34.3536 40.1515 34.097 40.1444 33.9378C40.1349 33.6836 39.9234 33.4199 39.6929 33.3082L38.3101 32.6881C38.3101 32.6881 36.2431 31.7876 34.9814 31.2126C34.8484 31.1547 34.7059 31.1216 34.5609 31.1152C34.3983 31.0985 34.2341 31.1168 34.0792 31.1689C33.9243 31.2209 33.7823 31.3055 33.6628 31.417V31.4122C33.6509 31.4122 33.4917 31.5476 31.7739 33.629C31.6753 33.7614 31.5395 33.8616 31.3838 33.9166C31.2281 33.9716 31.0595 33.979 30.8996 33.9378C30.7448 33.8964 30.5931 33.844 30.4458 33.781C30.1512 33.6575 30.049 33.61 29.847 33.522L29.8352 33.5173C28.4759 32.9238 27.2174 32.1223 26.1049 31.1414C25.8056 30.88 25.5276 30.5949 25.2425 30.3193C24.3077 29.4241 23.4931 28.4114 22.819 27.3066L22.6788 27.0809C22.5782 26.9292 22.4968 26.7656 22.4365 26.5938C22.3462 26.2446 22.5814 25.9642 22.5814 25.9642C22.5814 25.9642 23.1588 25.3322 23.4273 24.9901C23.6508 24.7057 23.8594 24.4099 24.0521 24.1038C24.3325 23.6524 24.4204 23.1891 24.2731 22.8303C23.6078 21.2052 22.9188 19.5872 22.2108 17.981C22.0706 17.6627 21.6548 17.4346 21.277 17.3894C21.1487 17.3752 21.0204 17.3609 20.8921 17.3514C20.5731 17.3356 20.2533 17.3411 19.9346 17.3633Z" fill="#FCFCFC"/>
</g>
<defs>
<clipPath id="clip0_122_457">
<rect width="57.0225" height="57.0225" fill="white"/>
</clipPath>
</defs>
</svg>
